HIERARCHY
ROOT Root
{
  OFFSET -2.02849 11.9301 9.36952
  CHANNELS 6 Xposition Yposition Zposition Zrotation Xrotation Yrotation
  JOINT Spine
  {
    OFFSET 5.3114 0 0
    CHANNELS 3 Zrotation Xrotation Yrotation
    JOINT Spine1
    {
      OFFSET 2.79004 0 0
      CHANNELS 3 Zrotation Xrotation Yrotation
      JOINT Neck
      {
        OFFSET 1.43377 0 0
        CHANNELS 3 Zrotation Xrotation Yrotation
        JOINT Head
        {
          OFFSET 1.86043 0 0
          CHANNELS 3 Zrotation Xrotation Yrotation
          End Site
          {
            OFFSET 0 0 0
          }
        }
      }
      JOINT LeftArm
      {
        OFFSET 0.0387506 0 2.55754
        CHANNELS 3 Zrotation Xrotation Yrotation
        JOINT LeftForeArm
        {
          OFFSET 4.24845 0 0
          CHANNELS 3 Zrotation Xrotation Yrotation
          JOINT LeftHand
          {
            OFFSET 4.01008 0 0
            CHANNELS 3 Zrotation Xrotation Yrotation
            End Site
            {
              OFFSET 0 0 0
            }
          }
        }
      }
      JOINT RightArm
      {
        OFFSET 0.0387506 0 -2.55754
        CHANNELS 3 Zrotation Xrotation Yrotation
        JOINT RightForeArm
        {
          OFFSET -4.24845 0 0
          CHANNELS 3 Zrotation Xrotation Yrotation
          JOINT RightHand
          {
            OFFSET -4.01009 0 0
            CHANNELS 3 Zrotation Xrotation Yrotation
            End Site
            {
              OFFSET 0 0 0
            }
          }
        }
      }
    }
  }
  JOINT LeftUpLeg
  {
    OFFSET -1.23318 0 2.05692
    CHANNELS 3 Zrotation Xrotation Yrotation
    JOINT LeftLeg
    {
      OFFSET 5.46397 0 0
      CHANNELS 3 Zrotation Xrotation Yrotation
      JOINT LeftFoot
      {
        OFFSET 4.68898 0 0
        CHANNELS 3 Zrotation Xrotation Yrotation
        End Site
        {
          OFFSET 0 0 0
        }
      }
    }
  }
  JOINT RightUpLeg
  {
    OFFSET -1.24454 0 -2.05007
    CHANNELS 3 Zrotation Xrotation Yrotation
    JOINT RightLeg
    {
      OFFSET -5.46397 0 0
      CHANNELS 3 Zrotation Xrotation Yrotation
      JOINT RightFoot
      {
        OFFSET -4.68901 0 0
        CHANNELS 3 Zrotation Xrotation Yrotation
        End Site
        {
          OFFSET 0 0 0
        }
      }
    }
  }
}
MOTION
Frames:	26
Frame Time:	0.0416667
-2.10468 12.0637 9.30428 -94.157 4.96196 -179.849 -7.86671 3.15215 1.38592 6.95403 1.05528 2.36442 -2.09337 -3.93867 -7.54845 0.869524 -5.88328 8.38431 1.11815 -49.2961 -140.472 61.1804 10.7135 34.0252 -1.71661 -12.034 174.274 163.844 -34.6185 -162.643 63.2014 11.7001 34.9103 -0.328137 -2.34649 174.492 -11.5869 -1.88669 -176.869 -33.0477 0.547913 -0.732172 36.8567 -13.5143 -170.263 163.004 -9.14959 -176.726 -33.2737 0.665862 -0.763403 15.7268 2.06016 -179.963 
-2.10533 12.0565 9.34532 -94.0935 5.92531 -179.77 -7.19629 2.41172 1.72268 7.05808 0.867487 2.61801 -2.18676 -3.41807 -7.28329 0.0875692 -5.03204 7.57863 2.08178 -48.6465 -144.708 60.0347 10.169 33.5089 -1.69573 -11.8889 174.278 167.001 -33.8165 -163.544 62.4933 11.3503 34.6033 -0.293031 -2.09495 174.491 -11.2185 -1.59137 -176.772 -32.9839 0.536151 -0.732038 37.3748 -13.9358 -169.816 162.418 -9.08616 -176.923 -33.8158 0.673257 -0.756338 14.7709 2.58722 179.929 
-2.11124 12.0448 9.3952 -94.178 6.99101 -179.633 -6.58806 1.93148 2.03302 7.10501 0.727447 2.4928 -2.53687 -2.97657 -6.75732 -0.360642 -4.38896 6.97462 3.18327 -48.8967 -147.414 58.5503 9.48191 32.8294 -1.70888 -11.9818 174.276 169.881 -32.0733 -164.31 61.9785 11.0986 34.3776 -0.240756 -1.72094 174.49 -11.124 -1.27339 -176.67 -33.1528 0.525699 -0.724774 38.0527 -14.3563 -169.301 161.568 -8.8707 -177.082 -34.4439 0.681102 -0.747263 13.4578 3.41058 179.79 
-2.12699 12.024 9.4568 -94.3553 8.28802 -179.498 -5.93895 1.12129 2.47929 6.79769 0.496169 2.4963 -2.65808 -2.37584 -6.36055 -0.682318 -3.34038 6.0884 4.11054 -48.9062 -149.866 57.4192 8.97116 32.3022 -1.65709 -11.6232 174.283 173.575 -30.5266 -164.22 61.9054 11.0629 34.3454 -0.227904 -1.6287 174.488 -11.2519 -0.825904 -176.357 -33.5969 0.53531 -0.714113 39.174 -13.787 -169.285 160.525 -8.74624 -177.356 -35.0893 0.688443 -0.736984 11.7866 4.25179 179.699 
-2.14535 12.0032 9.53388 -94.694 10.0971 -178.996 -5.57336 0.617633 2.58798 6.75305 0.366842 2.73961 -2.3839 -1.74741 -6.27965 -1.47126 -2.15148 5.43241 4.47256 -49.3219 -151.721 56.0773 8.38073 31.6668 -1.62405 -11.3948 174.288 176.964 -28.2667 -163.677 62.135 11.1746 34.4464 -0.243574 -1.75948 174.485 -11.432 1.02572 -176.046 -33.9887 0.5484 -0.697841 39.3851 -13.4869 -169.428 159.141 -9.154 -177.514 -35.9499 0.697672 -0.723545 10.143 5.22672 179.622 
-2.1742 11.977 9.61053 -95.2362 11.1859 -178.651 -5.15855 -0.457131 2.98531 6.74499 0.0594991 2.66199 -2.57524 -1.03002 -5.61167 -1.87415 -0.928377 4.03484 4.7879 -49.957 -152.342 55.0889 7.95705 31.1912 -1.61618 -11.3399 174.289 179.245 -25.1501 -163.267 62.4123 11.3104 34.5677 -0.250965 -1.79216 174.483 -12.4517 2.87612 -175.416 -34.9283 0.564612 -0.677186 38.8398 -13.3818 -169.741 157.627 -9.39299 -177.867 -36.8736 0.706759 -0.706439 9.13835 6.10645 179.542 
-2.20941 11.951 9.68492 -95.7767 12.2733 -178.186 -4.56454 -2.03209 3.40916 6.85016 -0.377876 2.7669 -2.69359 -0.0782003 -5.01623 -2.68206 0.779421 2.4361 4.30134 -50.2401 -152.818 54.2004 7.58389 30.7593 -1.64129 -11.5147 174.286 -178.935 -22.3752 -161.736 62.923 11.5618 34.79 -0.26139 -1.86628 174.48 -13.7186 4.82718 -174.777 -36.3213 0.596276 -0.648136 38.1185 -12.9936 -170.3 155.999 -9.88075 -178.22 -37.9105 0.71623 -0.688624 8.24882 6.82349 179.491 
-2.24925 11.9261 9.74656 -96.4455 13.5697 -177.76 -3.88184 -3.701 4.02397 6.85537 -0.846616 2.81655 -2.79964 1.02124 -4.36299 -3.49125 2.78926 1.01846 4.0027 -50.591 -152.364 53.581 7.32798 30.4556 -1.69549 -11.8887 174.278 -177.719 -19.7535 -159.166 63.6049 11.901 35.0836 -0.208916 -1.4911 174.479 -15.6683 7.54433 -173.718 -38.5304 0.636343 -0.606511 36.668 -12.8077 -171.014 154.359 -10.1031 -178.577 -38.6176 0.720644 -0.670403 7.1661 7.66283 179.472 
-2.28757 11.9046 9.78962 -97.084 14.9448 -177.237 -3.07486 -5.75301 4.37749 6.99284 -1.4068 3.18997 -2.89212 2.34408 -3.33307 -4.26527 5.19294 -0.646705 3.6773 -50.9564 -151.156 53.0985 7.13116 30.2175 -1.79515 -12.5656 174.257 -177.199 -17.7484 -155.175 64.4167 12.31 35.429 -0.221664 -1.58158 174.476 -17.6369 9.95138 -172.716 -40.7772 0.678046 -0.563009 35.0776 -12.7534 -171.671 152.736 -10.1261 -178.718 -39.3661 0.724472 -0.654845 5.69626 8.45516 179.549 
-2.32596 11.8922 9.81416 -97.6601 16.7828 -176.616 -2.24939 -7.31086 4.4719 6.95141 -1.836 3.54863 -2.71321 3.49384 -2.44387 -4.50596 7.3088 -1.77511 3.91516 -51.786 -148.761 52.3529 6.832 29.8471 -1.98795 -13.8651 174.213 -177.367 -15.6659 -150.496 65.2152 12.7177 35.7635 -0.126148 -0.899807 174.475 -19.3226 11.9076 -171.812 -43.0762 0.72758 -0.51708 33.9308 -12.4125 -172.331 151.319 -10.4344 -178.84 -39.6438 0.721595 -0.644385 4.1236 9.10718 179.68 
-2.36188 11.8901 9.81656 -98.2638 19.306 -175.948 -1.43978 -8.34457 4.42915 6.9932 -2.10575 4.03807 -2.39612 4.64296 -1.6331 -4.65709 9.43937 -2.85283 4.19308 -52.5559 -145.893 51.1175 6.34718 29.2275 -2.18864 -15.2022 174.163 -178.167 -14.2713 -144.604 65.9358 13.0896 36.062 -0.0132766 -0.0946202 174.473 -20.4997 13.6654 -170.892 -44.6596 0.767266 -0.485503 32.733 -12.2425 -172.907 149.916 -11.3892 -179.166 -39.5285 0.713369 -0.651889 2.36765 9.50905 179.851 
-2.37417 11.8883 9.78804 -98.7251 22.293 -175.185 -0.662225 -9.46541 4.29434 6.90844 -2.40682 4.51755 -0.543744 5.83523 -2.35037 -6.86959 11.9369 -1.58326 4.90865 -52.6205 -143.031 49.4561 5.71991 28.3816 -2.3984 -16.5817 174.105 -178.423 -14.6135 -136.797 66.7319 13.5054 36.3863 0.136659 0.974037 174.469 -20.4365 14.2303 -170.547 -44.6294 0.797185 -0.486984 31.5547 -11.6056 -173.611 149.044 -12.4254 -179.302 -38.9646 0.691592 -0.631949 0.20082 10.0746 -179.903 
-2.3703 11.8867 9.73456 -99.3966 25.5039 -174.065 -0.442012 -10.5589 3.81595 6.95919 -2.70113 4.88202 0.200905 7.18072 -1.37307 -6.47555 14.4149 -3.08458 7.21606 -52.3548 -139.186 47.57 5.04003 27.405 -2.55591 -17.6044 174.059 -178.48 -16.1989 -127.539 67.2657 13.7872 36.6005 0.317671 2.2634 174.463 -19.7197 14.0416 -170.897 -43.3141 0.794989 -0.513378 31.054 -11.2859 -173.917 147.753 -13.832 -179.237 -38.672 0.711576 -0.656146 -2.1212 10.6012 -179.603 
-2.35808 11.8858 9.65872 -100.103 29.2153 -172.969 -0.0798508 -11.4587 3.40009 7.12966 -2.97189 4.67547 -0.0685186 8.49747 0.905745 -4.81702 16.4833 -6.05368 12.7673 -52.2082 -132.279 45.5502 4.35253 26.3414 -2.86534 -19.58 173.96 -176.83 -18.9204 -116.452 68.1923 14.2797 36.9669 0.342732 2.44078 174.46 -17.9669 13.4259 -171.654 -41.521 0.711027 -0.545101 34.4991 -12.536 -172.389 146.63 -15.6968 -179.481 -37.9703 0.71824 -0.66147 -4.63689 11.1407 -179.276 
-2.34343 11.8738 9.56893 -100.707 32.9817 -172.148 0.255802 -12.6199 3.17916 7.41269 -3.30278 4.59917 0.549557 9.81077 2.73723 -3.87572 18.5825 -8.9497 21.5088 -51.8975 -123.777 43.7121 3.76198 25.3596 -3.14702 -21.3367 173.862 -173.778 -21.5477 -103.478 69.0928 14.769 37.3207 0.400268 2.8494 174.455 -15.8309 12.8967 -172.452 -39.9197 0.565739 -0.56856 40.0664 -14.6776 -169.336 145.586 -17.503 179.982 -37.2133 0.738859 -0.680201 -7.09174 11.5215 -178.953 
-2.33092 11.8511 9.4631 -101.353 36.4325 -171.277 0.542047 -12.9604 2.69122 7.43512 -3.47038 3.60517 0.909864 10.7984 5.10227 -2.63314 19.7417 -10.7503 36.8334 -50.9752 -110.123 43.0724 3.56426 25.0154 -3.35022 -22.5785 173.786 -169.421 -21.2868 -90.7758 70.3323 15.4345 37.785 0.409289 2.91248 174.452 -14.0425 12.017 -173.491 -38.6196 0.431843 -0.584029 44.7287 -16.1463 -166.4 144.516 -18.945 179.633 -36.465 0.75149 -0.68604 -9.54177 11.8124 -178.587 
-2.31381 11.8266 9.35126 -101.982 39.8559 -170.383 0.945229 -14.5013 2.37391 7.59193 -3.90997 3.5951 2.00408 12.0975 5.29435 -2.03835 22.0558 -11.8031 49.8743 -47.7166 -101.397 43.1969 3.60217 25.0818 -3.16996 -21.4779 173.853 -164.288 -19.755 -76.4269 71.7225 16.2208 38.3031 0.303946 2.16261 174.452 -12.9529 12.6154 -174.18 -38.3151 0.437336 -0.584946 45.9327 -15.2746 -166.605 143.627 -20.4067 179.256 -35.51 0.735941 -0.653208 -12.0317 12.1678 -178.182 
-2.29384 11.8117 9.23759 -102.384 43.3697 -169.345 1.56306 -14.8695 1.60477 7.63929 -4.06219 2.89308 3.07477 13.1213 6.01024 -1.38474 23.6303 -13.0613 61.3408 -43.2561 -95.3423 43.9905 3.85136 25.5124 -3.16869 -21.4703 173.854 -160.675 -14.6256 -64.848 73.9202 17.4685 39.0776 -0.0581621 -0.413809 174.453 -11.3881 14.9254 -175.153 -37.7075 0.449441 -0.582874 47.0709 -14.4062 -166.911 142.651 -22.4712 178.813 -34.9911 0.770258 -0.673903 -14.3615 12.5288 -177.796 
-2.27094 11.7891 9.11587 -103.069 46.6019 -168.272 2.08658 -15.8292 1.23448 7.64369 -4.35755 2.57395 4.41741 14.3495 5.74202 0.136541 25.7738 -14.7725 66.8663 -39.8652 -97.8291 44.1732 3.89814 25.5996 -3.06578 -20.8342 173.891 -159.327 -7.91953 -54.5384 76.4437 18.9369 39.915 -0.421503 -2.99613 174.443 -10.5303 18.2276 -175.676 -37.4443 0.462339 -0.576936 47.7527 -13.7832 -167.36 141.682 -24.5499 178.24 -34.2747 0.79019 -0.673743 -16.2394 12.6131 -177.549 
-2.23246 11.7555 8.98974 -103.889 49.2904 -167.203 2.28243 -16.8347 0.941628 7.39292 -4.68677 2.00427 6.25781 15.57 5.97845 2.3086 27.5032 -17.3963 68.3388 -38.3834 -106.103 43.2147 3.60743 25.0918 -3.02808 -20.5999 173.904 -161.658 -1.54429 -47.9748 79.3364 20.6617 40.7944 -0.562787 -3.9971 174.434 -10.1731 21.8902 -176.018 -37.6127 0.488354 -0.56461 48.0437 -13.1455 -168.078 140.875 -26.2609 177.907 -33.6293 0.802876 -0.672967 -17.5314 12.625 -177.396 
-2.17818 11.728 8.85812 -104.915 50.8315 -166.266 2.1931 -17.1842 0.775806 7.38381 -4.85135 0.998978 7.32168 16.2483 6.84517 4.23001 27.9825 -19.4952 68.071 -38.7267 -116.471 41.4667 3.2551 24.3302 -2.96509 -20.2068 173.926 -167.816 2.22101 -46.3962 81.5052 21.9782 41.4011 -0.758947 -5.38421 174.419 -10.3917 24.9361 -176.255 -37.5749 0.499281 -0.560712 47.9277 -13.0009 -168.53 139.886 -27.6382 177.758 -33.4201 0.813994 -0.670164 -17.8552 12.3348 -177.479 
-2.11512 11.6954 8.71039 -106.054 50.4829 -165.621 1.76192 -18.7462 0.930795 7.49818 -5.26434 1.53351 8.07398 16.5273 5.82484 6.2375 28.4622 -21.2559 61.2918 -40.3026 -132.417 38.9684 2.38454 22.7534 -2.73264 -18.7385 174.004 -175.918 0.513689 -47.5955 82.5334 22.6096 41.6676 -1.00102 -7.08553 174.393 -11.6767 26.1283 -176.416 -37.9949 0.507584 -0.555152 47.4405 -13.1492 -168.78 139.156 -28.3376 178.304 -33.4513 0.797562 -0.651564 -16.9338 11.9572 -177.754 
-2.04983 11.6749 8.54416 -106.744 47.0667 -165.886 1.2566 -18.6415 0.963952 8.1801 -5.1925 1.98438 7.0676 15.6795 6.25414 7.1477 26.6463 -22.3411 51.5078 -39.1705 -146.439 36.2681 1.72446 21.2566 -2.22914 -15.47 174.152 171.927 -0.997001 -53.8294 84.2105 23.6388 42.0806 -1.75935 -12.3222 174.265 -14.9906 24.8375 -176.052 -39.6675 0.561944 -0.538433 45.142 -13.3351 -169.555 138.828 -28.3876 179.83 -34.2649 0.792666 -0.669467 -13.5114 11.0903 -178.48 
-1.98675 11.667 8.3527 -107.184 39.2979 -167.26 0.226979 -17.5526 1.59125 8.63284 -4.81019 2.8058 6.1898 13.4428 5.65984 6.627 22.8524 -21.5684 41.9968 -35.2966 -156.633 34.5275 1.32873 20.2738 -1.65737 -11.6288 174.286 155.529 0.871861 -61.6501 86.3879 24.9994 42.5715 -2.89923 -19.7932 173.949 -20.8527 20.9878 -175.558 -42.7853 0.692624 -0.507899 41.687 -12.3163 -171.363 139.329 -27.4406 -177.261 -36.1575 0.781698 -0.678826 -6.53594 9.50027 -179.61 
-1.92851 11.652 8.11352 -106.991 26.1095 -170.965 -0.385644 -17.3195 4.53218 7.94943 -4.70476 3.35567 5.88028 9.88091 4.3503 5.77496 16.7971 -20.2464 35.1693 -32.0114 -161.884 34.5221 1.32814 20.2705 -1.4185 -9.9895 174.331 134.077 3.98103 -68.2152 87.381 25.6208 42.7767 -2.91983 -19.9227 173.942 -28.1895 12.6183 -176.223 -46.2669 0.81121 -0.474118 36.9196 -11.1278 -173.143 141.994 -23.7183 -173.091 -38.4446 0.770008 -0.690274 3.999 7.11189 179.367 
-1.88125 11.6393 7.8423 -107.16 9.66413 -176.05 -1.46382 -18.1593 8.93643 7.01632 -4.84087 4.27227 6.03634 5.32548 1.69969 4.97265 9.39801 -18.0507 29.2366 -31.784 -164.501 36.1741 1.70076 21.2048 -1.3823 -9.74149 174.338 106.373 3.53907 -74.6404 88.5577 26.3586 43.0081 -3.67376 -24.5093 173.655 -35.2955 4.83638 -177.519 -48.1059 1.00235 -0.460952 29.4787 -6.09733 -176.86 146.746 -16.5424 -168.98 -39.5561 0.76136 -0.705582 15.4741 4.78685 178.993 
